<svg width="171" height="210" viewBox="0 0 171 210" fill="none" xmlns="http://www.w3.org/2000/svg">
<g filter="url(#filter0_d_1_3)">
<path fill-rule="evenodd" clip-rule="evenodd" d="M78.7975 4.09096C81.7324 10.6517 87.6619 16.3186 93.9738 18.5942C100.288 20.8708 102.615 22.8978 100.416 24.2066C88.4872 31.3043 83.0213 34.1779 82.109 33.8323C80.2481 33.1261 76.2318 23.8618 75.5757 18.7633C75.0111 14.372 75.814 0 76.6244 0C76.8132 0 77.7909 1.84121 78.7975 4.09096ZM134.291 20.38L137.782 21.3385L134.527 24.165C132.737 25.7197 129.985 29.6581 128.413 32.9163C126.381 37.1265 124.362 39.7062 121.436 41.8349C119.172 43.4811 117.302 45.13 117.283 45.4979C117.263 45.8667 118.614 46.8631 120.284 47.7134C132.682 54.0246 148.302 67.5379 155.501 78.1812C167.412 95.7929 170.22 123.726 162.411 146.932C156.703 163.893 142.667 181.304 127.732 189.95C104.509 203.393 76.0412 205.132 49.9301 194.703C28.2373 186.037 11.7767 167.138 5.89672 144.146C3.27122 133.877 3.73575 113.723 6.8155 104.339C11.6225 89.6888 21.7039 77.244 36.8269 67.2929L44.7333 62.09L50.3797 64.1919C82.3343 76.0868 100.866 97.9705 92.8503 114.344C91.7708 116.549 86.3571 123.332 80.8211 129.414C70.1125 141.18 65.3074 148.877 62.566 158.654C59.5124 169.548 52.4407 174.259 47.2859 168.833C44.1557 165.538 43.3136 161.599 42.5154 146.502C41.8826 134.526 41.4321 131.783 39.2103 126.364C36.0138 118.57 30.8403 112.853 22.4526 107.845C17.84 105.091 15.4622 102.977 14.1602 100.476C13.1573 98.5464 13.1795 98.3515 13 98.5299C12.8196 98.7083 11.7872 102.577 10.4217 107.633C8.21212 115.815 8.00088 117.89 8.5 126.53C9.15801 137.927 9.64196 144.034 14.0312 153.123C22.5171 170.696 40.4151 184.737 60.3573 189.465C75.9365 193.158 97.634 191.286 111.977 185.012C123.163 180.119 137.603 167.117 139.761 159.997C141.568 154.03 139.806 148.392 134.751 143.97C132.577 142.07 129.802 139.643 128.584 138.576C124.207 134.747 127.616 126.325 134.738 123.375C138.011 122.018 139.683 118.188 138.119 115.626C137.624 114.815 134.882 113.037 132.025 111.673C124.405 108.038 122.587 105.338 123.035 98.3181C123.458 91.6807 125.894 87.8919 133.214 82.4875C135.742 80.6223 137.809 78.685 137.809 78.1831C137.809 76.3576 126.828 66.7707 120.483 63.0559C112.258 58.2403 106.64 56.9306 99.6772 58.2034C88.3059 60.2821 80.2724 58.4363 76.0374 52.7712C73.5409 49.4317 71.6846 49.1969 68.3441 51.7952L65.9233 53.678L64.4792 50.9171C63.6848 49.3984 63.0483 46.7827 63.0651 45.106C63.1249 38.9566 67.4898 36.5682 76.988 37.486C83.1306 38.0794 83.1316 38.0794 91.4184 33.249C105.348 25.1309 119.828 19.6072 127.528 19.476C129.327 19.4455 132.37 19.8522 134.291 20.38Z" fill="#FAFAFA"/>
<path d="M127.536 19.9756C129.283 19.946 132.278 20.3459 134.158 20.8623H134.159L136.749 21.5723L134.2 23.7871C133.258 24.6049 132.094 26.0183 130.978 27.6152C129.858 29.2192 128.762 31.0419 127.963 32.6992C126.082 36.5963 124.231 39.0425 121.665 41.0371L121.142 41.4307C120 42.2607 118.954 43.0941 118.187 43.7705C117.805 44.1076 117.484 44.4128 117.254 44.6631C117.139 44.7874 117.038 44.9086 116.962 45.0195C116.924 45.0749 116.886 45.1368 116.855 45.2021C116.834 45.2472 116.807 45.3117 116.793 45.3896L116.783 45.4717C116.773 45.6639 116.85 45.8233 116.908 45.9199C116.972 46.0272 117.057 46.1298 117.145 46.2236C117.324 46.4124 117.569 46.618 117.852 46.8271C118.423 47.2483 119.203 47.7243 120.057 48.1592C132.387 54.4352 147.939 67.8935 155.087 78.4609C166.897 95.9227 169.704 123.689 161.936 146.772C156.266 163.623 142.308 180.934 127.482 189.517C104.399 202.879 76.0923 204.614 50.116 194.238C28.5744 185.633 12.2229 166.862 6.38159 144.022C5.08512 138.952 4.5441 131.397 4.71655 123.922C4.88907 116.444 5.77374 109.117 7.29077 104.495C12.0566 89.9704 22.0558 77.6111 37.1013 67.7109L44.7966 62.6465L50.2048 64.6602C66.1254 70.5865 78.6669 78.9892 86.2224 87.9111C93.7842 96.8406 96.2848 106.191 92.4011 114.124C91.8897 115.169 90.3036 117.372 88.116 120.113C85.9427 122.836 83.212 126.044 80.4509 129.078C69.717 140.871 64.8557 148.636 62.0847 158.519C60.5749 163.905 58.0921 167.678 55.4363 169.447C54.1162 170.327 52.7686 170.703 51.4714 170.566C50.1756 170.43 48.8712 169.776 47.6482 168.488H47.6472C46.1568 166.919 45.2011 165.198 44.5154 161.988C43.8233 158.749 43.4137 154.028 43.0144 146.476C42.3811 134.489 41.928 131.676 39.6726 126.175C36.4287 118.265 31.1739 112.47 22.7087 107.416C18.1153 104.674 15.8387 102.618 14.6033 100.245C14.3548 99.7669 14.1698 99.3961 14.0291 99.1113C13.8909 98.8318 13.7884 98.62 13.7126 98.4775C13.6749 98.4065 13.6356 98.3364 13.5945 98.2764C13.5603 98.2264 13.4891 98.1279 13.3738 98.0586C13.2146 97.9629 13.0272 97.953 12.863 98.0234C12.7486 98.0727 12.6697 98.1524 12.6472 98.1748C12.5933 98.2284 12.5604 98.2845 12.5466 98.3086C12.5286 98.3401 12.5133 98.3725 12.5007 98.4004C12.4754 98.4565 12.4495 98.5234 12.4236 98.5947C12.3712 98.7392 12.3076 98.9341 12.2351 99.1699C12.0896 99.6434 11.8994 100.307 11.6736 101.118C11.2216 102.742 10.6215 104.976 9.93921 107.502C8.83408 111.595 8.2191 114.194 7.948 116.859C7.67697 119.524 7.75114 122.238 8.00073 126.559C8.65919 137.964 9.14584 144.156 13.5808 153.34C22.1358 171.056 40.1618 185.191 60.2419 189.951C75.9239 193.669 97.7322 191.789 112.177 185.471C117.834 182.996 124.286 178.486 129.59 173.711C132.244 171.321 134.621 168.856 136.473 166.533C138.319 164.219 139.672 162.012 140.239 160.142C142.109 153.968 140.269 148.132 135.08 143.594C132.906 141.693 130.131 139.267 128.913 138.2C126.942 136.476 126.664 133.67 127.812 130.834C128.922 128.094 131.335 125.433 134.609 123.975L134.929 123.837C136.69 123.107 138.02 121.714 138.701 120.152C139.381 118.593 139.433 116.817 138.547 115.365H138.546C138.374 115.084 138.051 114.775 137.676 114.47C137.286 114.153 136.792 113.802 136.23 113.438C135.106 112.709 133.687 111.912 132.241 111.222C128.441 109.409 126.19 107.873 124.92 105.985C123.661 104.116 123.312 101.822 123.534 98.3496C123.742 95.0922 124.439 92.574 125.959 90.2109C127.487 87.8345 129.869 85.5789 133.511 82.8896C134.787 81.948 135.952 80.9846 136.802 80.1885C137.225 79.7917 137.58 79.4281 137.832 79.124C137.957 78.9728 138.066 78.8253 138.146 78.6885C138.215 78.5708 138.309 78.3869 138.309 78.1826C138.309 77.9579 138.229 77.733 138.135 77.5371C138.037 77.3316 137.899 77.1079 137.734 76.873C137.403 76.4026 136.931 75.8457 136.36 75.2314C135.215 74.0006 133.631 72.502 131.854 70.9512C128.305 67.8525 123.947 64.504 120.736 62.624C112.444 57.7691 106.704 56.4112 99.5876 57.7119C88.2757 59.7798 80.4986 57.903 76.4382 52.4717C75.1769 50.7844 73.98 49.7393 72.5701 49.5605C71.1635 49.3822 69.7224 50.0894 68.0369 51.4004L66.0876 52.915L64.9226 50.6855C64.1655 49.2384 63.5493 46.7038 63.5652 45.1113V45.1104C63.5939 42.1725 64.6357 40.2287 66.7273 39.084C68.877 37.9076 72.2166 37.5269 76.9402 37.9834C79.9872 38.2777 81.6257 38.4428 83.5398 37.8809C85.4174 37.3296 87.5555 36.0794 91.6707 33.6807L91.6697 33.6797C98.6132 29.633 105.692 26.2363 111.987 23.835C118.296 21.4287 123.775 20.0398 127.536 19.9756ZM76.9626 1.43652C77.3499 2.16559 77.8415 3.17743 78.3416 4.29492C81.3275 10.9698 87.355 16.7392 93.8044 19.0645C96.9573 20.2013 99.0385 21.2522 100.058 22.1406C100.578 22.5929 100.721 22.9161 100.724 23.1064C100.727 23.2535 100.643 23.4896 100.16 23.7773C94.1969 27.3255 89.8573 29.8123 86.8982 31.3682C85.4174 32.1468 84.2939 32.6858 83.491 33.0078C83.0885 33.1692 82.7809 33.2702 82.5574 33.3213C82.3066 33.3785 82.2504 33.3509 82.2859 33.3643H82.2849C82.1712 33.3205 81.972 33.1769 81.697 32.8623C81.4323 32.5595 81.1363 32.1445 80.8201 31.6338C80.1885 30.6136 79.5028 29.2533 78.8494 27.7461C77.5392 24.7242 76.3915 21.1821 76.072 18.6992C75.7964 16.5547 75.8522 11.9067 76.0837 7.7627C76.1991 5.69762 76.3566 3.77647 76.5349 2.37695C76.6034 1.83964 76.6736 1.38791 76.7439 1.03809C76.8111 1.15771 76.8851 1.29046 76.9626 1.43652Z" stroke="#FDFAFA"/>
</g>
<defs>
<filter id="filter0_d_1_3" x="0.185303" y="0" width="170.612" height="209.444" filterUnits="userSpaceOnUse" color-interpolation-filters="sRGB">
<feFlood flood-opacity="0" result="BackgroundImageFix"/>
<feColorMatrix in="SourceAlpha" type="matrix" values="0 0 0 0 0 0 0 0 0 0 0 0 0 0 0 0 0 0 127 0" result="hardAlpha"/>
<feOffset dy="4"/>
<feGaussianBlur stdDeviation="2"/>
<feComposite in2="hardAlpha" operator="out"/>
<feColorMatrix type="matrix" values="0 0 0 0 0 0 0 0 0 0 0 0 0 0 0 0 0 0 0.25 0"/>
<feBlend mode="normal" in2="BackgroundImageFix" result="effect1_dropShadow_1_3"/>
<feBlend mode="normal" in="SourceGraphic" in2="effect1_dropShadow_1_3" result="shape"/>
</filter>
</defs>
</svg>
